<svg width="46" height="52" fill="none"><path fill-rule="evenodd" clip-rule="evenodd" d="M37.019 31.077c-.017-.455-.02-.993-.015-1.603.01-1.135.051-2.471.096-3.927.026-.831.053-1.701.076-2.594.063-2.44.094-5.029-.017-7.36-.11-2.306-.362-4.455-.912-5.967C34.083 3.676 28.675.55 20.961.036c-3.95-.263-8.777.915-12.636 3.596-3.886 2.7-6.824 6.957-6.824 12.802v.026c.026.874.067 1.797.109 2.748.096 2.187.199 4.52.141 6.744-.04 1.585-.163 3.072-.42 4.362-.26 1.298-.642 2.334-1.163 3.063A.9.9 0 00.18 34.44c.858 1.143 1.845 1.8 2.886 2.13.315.1.63.169.94.212-1.02 1.729-1.78 3.753-1.971 6.042-.136 1.636.13 2.96.748 4.002.619 1.046 1.538 1.719 2.544 2.15 1.921.823 4.324.823 6.023.823h.024c.56.555 1.225.895 1.904 1.09 1.551.443 3.246.14 4.278-.118.881-.22 1.578-.8 2.06-1.472.092-.128.178-.262.257-.4h15.524c.478.629 1.15 1.163 1.987 1.372 1.032.258 2.727.56 4.279.117.798-.228 1.576-.659 2.189-1.402.61-.74 1.006-1.73 1.145-2.989.233-2.091-.504-3.584-1.578-4.554-1.033-.933-2.324-1.34-3.217-1.44l-.05-.005h-.05c-.491 0-.92.04-1.28.14a3.501 3.501 0 00-2.212-4.025 3.493 3.493 0 001.29-2.715c0-.89-.333-1.704-.881-2.321zM3.301 16.42c.024.818.063 1.704.104 2.632.097 2.213.205 4.656.146 6.945-.043 1.638-.17 3.238-.455 4.668-.23 1.157-.572 2.244-1.085 3.159.524.554 1.066.86 1.599 1.03.5.158 1.028.207 1.578.191a19.097 19.097 0 014.349-4.071A15.959 15.959 0 017.18 28.44c-3.514-4.686-3.77-9.158-2.576-12.841 1.176-3.628 3.732-6.423 5.761-7.923a.9.9 0 011.171 1.36c-.846.847-1.402 2.043-1.626 3.275-.214 1.18-.107 2.29.238 3.065.075.028.202.06.393.087.453.061 1.109.065 1.932-.002 1.636-.135 3.782-.538 5.959-1.171 2.18-.634 4.344-1.484 6.036-2.49 1.735-1.032 2.785-2.116 3.064-3.137.103-.38.385-.845.97-.96.473-.094.886.11 1.13.263.529.331 1.08.95 1.583 1.667 1.031 1.467 2.11 3.71 2.569 6.097 1.122 5.837-.875 10.828-4.318 14.168H34.4c.276 0 .544.032.802.093 0-.173 0-.35.002-.532.01-1.154.053-2.527.098-3.999.026-.827.052-1.685.074-2.553.063-2.432.093-4.966-.014-7.228-.11-2.286-.356-4.2-.807-5.438-1.836-5.049-6.428-7.923-13.714-8.409-3.55-.237-7.972.835-11.489 3.278-3.486 2.423-6.046 6.161-6.05 11.31zm6.967 31.57a6.913 6.913 0 01-.325-1.494c-.233-2.091.504-3.584 1.579-4.554 1.032-.933 2.323-1.34 3.216-1.44l.05-.005h.05c.542 0 1.008.05 1.39.173.39.127.772.36.991.776.08.152.126.305.149.452h.582a3.498 3.498 0 01.646-5.5 3.498 3.498 0 01-1.588-2.133 13.703 13.703 0 01-5.936-2.138c-1.173.714-2.67 1.884-4.004 3.456-1.64 1.935-2.993 4.43-3.24 7.39-.113 1.363.121 2.29.503 2.935.38.642.961 1.094 1.705 1.413 1.222.523 2.756.642 4.232.669zm6.76-15.535a3.501 3.501 0 013.372-2.558h6.278c3.957-2.869 6.491-7.83 5.338-13.828-.406-2.112-1.373-4.12-2.274-5.403a6.927 6.927 0 00-.711-.874c-.65 1.43-2.056 2.61-3.643 3.554-1.867 1.11-4.186 2.012-6.454 2.671-2.27.66-4.535 1.09-6.314 1.237-.883.072-1.685.078-2.322-.009a3.458 3.458 0 01-.91-.236c-.266-.116-.602-.326-.793-.708-.516-1.032-.681-2.325-.554-3.61a13.598 13.598 0 00-1.725 3.462C5.3 19.288 5.462 23.149 8.62 27.36c2.313 3.085 5.316 4.688 8.408 5.096zM28.615 9.458s.005.001.013.006l-.004-.002-.004-.002h-.003l-.002-.002zM20.4 31.698h14a1.7 1.7 0 010 3.4h-14a1.7 1.7 0 110-3.4zm17.21 10.415l.004-.003v.005l-.005-.002zm-19.021 1.585h16.877a2.703 2.703 0 00-.404.422c-.538.7-.682 1.578-.605 2.38.02.2.052.4.099.598H20.473l.01-.098c.078-.802-.066-1.68-.604-2.38a2.757 2.757 0 00-1.29-.922zm16.81-6h-15a1.7 1.7 0 000 3.4h15a1.7 1.7 0 100-3.4zm6.813 5.08c-.675-.609-1.555-.903-2.16-.98a3.728 3.728 0 00-.638.05c.021.056.048.123.082.204l.028.067c.066.157.156.37.216.576.068.227.15.6.028.997-.14.46-.487.755-.884.913-.361.144-.799.193-1.281.193-.65 0-.957.215-1.115.42-.181.235-.287.615-.24 1.11.048.488.24 1.005.54 1.423.299.418.665.682 1.033.774.969.242 2.273.44 3.347.133.514-.147.955-.404 1.295-.817.342-.415.635-1.051.745-2.042.168-1.509-.345-2.433-.996-3.02zm-29.484.5c.675-.609 1.555-.903 2.161-.98.294.002.499.024.637.05a5.832 5.832 0 01-.082.204l-.028.067c-.066.157-.156.37-.216.576-.067.227-.15.6-.028.997.14.46.488.755.884.913.362.144.8.193 1.281.193.65 0 .957.215 1.116.42.18.235.286.615.239 1.11a3.006 3.006 0 01-.54 1.423c-.299.418-.664.682-1.033.774-.969.242-2.273.44-3.347.133-.514-.147-.954-.404-1.295-.817-.342-.415-.635-1.051-.745-2.042-.168-1.509.346-2.433.996-3.02z" fill="#21DAFF"/></svg>