<svg width="665" height="591" viewBox="0 0 665 591" fill="none" xmlns="http://www.w3.org/2000/svg">
<path fill-rule="evenodd" clip-rule="evenodd" d="M94.2963 586.455C83.2666 593.992 68.1483 591.255 60.5335 580.338C52.9187 569.421 55.6863 554.457 66.716 546.92C135.202 499.944 197.88 485.52 255.97 490.011C313.347 494.449 365.056 517.339 413.119 545.368C424.672 552.074 428.548 566.786 421.772 578.222C414.997 589.659 400.134 593.494 388.579 586.789C346.047 561.984 300.857 541.771 252.355 538.02C204.566 534.325 152.364 546.627 94.2963 586.455Z" fill="#21DAFF"/>
<path fill-rule="evenodd" clip-rule="evenodd" d="M471.72 350.969C473.868 330.36 471.828 311.033 465.619 292.813C464.349 289.109 462.947 285.486 461.416 281.948L521.918 288.126C528.045 310.914 529.801 334.858 527.185 359.962C524.261 388.003 516.004 413.451 502.412 436.305C494.698 449.274 485.825 461.078 475.831 471.726C458.906 462.94 440.705 453.546 422.802 444.36C434.956 433.747 445.266 421.248 453.726 406.924C463.581 390.174 469.572 371.578 471.72 350.969ZM195.244 254.772C192.642 258.536 190.195 262.448 187.903 266.509C178.375 283.464 172.51 302.497 170.292 323.781C168.179 344.053 170.322 363.22 176.701 381.457C178.424 386.356 180.378 391.104 182.563 395.702C165.05 399.935 147.296 405.08 129.966 410.81C127.653 405.125 125.571 399.285 123.723 393.288C115.728 367.379 113.212 340.231 116.169 311.853C118.545 289.046 124.544 267.941 134.166 248.536L195.244 254.772Z" fill="#0097AA"/>
<path fill-rule="evenodd" clip-rule="evenodd" d="M422.882 230.021C413.819 222.344 403.78 215.748 392.762 210.183C375.394 201.411 356.469 195.98 335.988 193.888C314.827 191.728 294.659 193.254 275.487 198.465C263.73 201.663 252.791 206.035 242.666 211.622L165.074 203.699C173.393 194.631 182.535 186.392 192.483 178.981C213.239 163.514 236.674 152.165 262.613 144.911C288.55 137.658 315.258 135.432 342.565 138.221C370.896 141.114 397.068 148.994 420.913 161.842C444.842 174.699 465.123 191.109 481.842 211.085C488.935 219.559 495.279 228.524 500.859 237.981L422.882 230.021Z" fill="#21DAFF"/>
<path fill-rule="evenodd" clip-rule="evenodd" d="M336.397 98.4751L331.957 138.715L356.259 141.197C352.886 132.344 351.078 119.034 351.273 112.934C357.54 109.694 366.713 109.087 376.991 102.62L336.397 98.4751Z" fill="#21DAFF"/>
<path d="M353.657 0.301615C369.311 1.90031 382.835 9.63013 392.037 20.8348C401.239 32.0377 406.125 46.7191 404.51 62.2134C402.895 77.7094 395.085 91.0916 383.766 100.2C372.448 109.308 357.615 114.145 341.959 112.547C339.609 112.307 337.308 111.928 335.061 111.42L336.957 93.2415C339.165 93.8772 341.463 94.3267 343.834 94.5678C354.477 95.6549 364.56 92.368 372.249 86.1799C379.941 79.9919 385.248 70.8943 386.346 60.3598C387.444 49.8235 384.123 39.8452 377.871 32.2324C371.619 24.6214 362.428 19.369 351.783 18.282C341.139 17.1949 331.058 20.4801 323.369 26.6682C315.696 32.8425 310.395 41.9109 309.279 52.4127L291.115 50.5574C292.747 35.0958 300.552 21.741 311.851 12.6484C323.172 3.54034 338.001 -1.29536 353.657 0.301615Z" fill="#21DAFF"/>
<path fill-rule="evenodd" clip-rule="evenodd" d="M37.6389 492.37C26.4004 499.646 11.324 496.528 3.97031 485.405C-3.38167 474.279 -0.231373 459.357 11.0072 452.078C42.7787 431.523 74.5329 416.295 106.242 405.518C138.083 394.692 169.82 388.352 201.442 385.606C315.658 375.68 386.52 415.155 450.742 450.929C508.075 482.867 559.386 511.451 633.139 488.962C645.954 485.064 659.541 492.187 663.48 504.871C667.417 517.556 660.221 531.004 647.406 534.902C553.654 563.489 493.82 530.158 426.965 492.916C368.986 460.618 305.008 424.98 205.626 433.616C177.803 436.033 149.931 441.594 122.03 451.079C93.9955 460.606 65.8615 474.11 37.6389 492.37Z" fill="#21DAFF"/>
</svg>
