<svg width="665" height="591" fill="none" xmlns="http://www.w3.org/2000/svg"><path fill-rule="evenodd" clip-rule="evenodd" d="M94.296 586.455c-11.03 7.537-26.148 4.8-33.763-6.117-7.614-10.917-4.847-25.881 6.183-33.418 68.486-46.976 131.164-61.4 189.254-56.909 57.377 4.438 109.086 27.328 157.149 55.357 11.553 6.706 15.429 21.418 8.653 32.854-6.775 11.437-21.638 15.272-33.193 8.567-42.532-24.805-87.722-45.018-136.224-48.769-47.789-3.695-99.991 8.607-158.059 48.435z" fill="#21DAFF"/><path fill-rule="evenodd" clip-rule="evenodd" d="M471.72 350.969c2.148-20.609.108-39.936-6.101-58.156a149.2 149.2 0 00-4.203-10.865l60.502 6.178c6.127 22.788 7.883 46.732 5.267 71.836-2.924 28.041-11.181 53.489-24.773 76.343-7.714 12.969-16.587 24.773-26.581 35.421a12754.976 12754.976 0 00-53.029-27.366c12.154-10.613 22.464-23.112 30.924-37.436 9.855-16.75 15.846-35.346 17.994-55.955zm-276.476-96.197a152.061 152.061 0 00-7.341 11.737c-9.528 16.955-15.393 35.988-17.611 57.272-2.113 20.272.03 39.439 6.409 57.676a146.086 146.086 0 005.862 14.245c-17.513 4.233-35.267 9.378-52.597 15.108a212.593 212.593 0 01-6.243-17.522c-7.995-25.909-10.511-53.057-7.554-81.435 2.376-22.807 8.375-43.912 17.997-63.317l61.078 6.236z" fill="#0097AA"/><path fill-rule="evenodd" clip-rule="evenodd" d="M422.882 230.021c-9.063-7.677-19.102-14.273-30.12-19.838-17.368-8.772-36.293-14.203-56.774-16.295-21.161-2.16-41.329-.634-60.501 4.577-11.757 3.198-22.696 7.57-32.821 13.157l-77.592-7.923a196.032 196.032 0 0127.409-24.718c20.756-15.467 44.191-26.816 70.13-34.07 25.937-7.253 52.645-9.479 79.952-6.69 28.331 2.893 54.503 10.773 78.348 23.621 23.929 12.857 44.21 29.267 60.929 49.243a200.948 200.948 0 0119.017 26.896l-77.977-7.96z" fill="#21DAFF"/><path fill-rule="evenodd" clip-rule="evenodd" d="M336.397 98.475l-4.44 40.24 24.302 2.482c-3.373-8.853-5.181-22.163-4.986-28.263 6.267-3.24 15.44-3.847 25.718-10.314l-40.594-4.145z" fill="#21DAFF"/><path d="M353.657.302c15.654 1.598 29.178 9.328 38.38 20.533 9.202 11.203 14.088 25.884 12.473 41.378-1.615 15.496-9.425 28.879-20.744 37.987-11.318 9.108-26.151 13.945-41.807 12.347a57.98 57.98 0 01-6.898-1.127l1.896-18.178a39.161 39.161 0 006.877 1.326 38.897 38.897 0 0028.415-8.388c7.692-6.188 12.999-15.286 14.097-25.82 1.098-10.536-2.223-20.515-8.475-28.128-6.252-7.61-15.443-12.863-26.088-13.95a38.892 38.892 0 00-28.414 8.386c-7.673 6.175-12.974 15.243-14.09 25.745l-18.164-1.856c1.632-15.461 9.437-28.816 20.736-37.909C323.172 3.54 338.001-1.295 353.657.302z" fill="#21DAFF"/><path fill-rule="evenodd" clip-rule="evenodd" d="M37.639 492.37c-11.239 7.276-26.315 4.158-33.669-6.965-7.352-11.126-4.201-26.048 7.037-33.327 31.772-20.555 63.526-35.783 95.235-46.56 31.841-10.826 63.578-17.166 95.2-19.912 114.216-9.926 185.078 29.549 249.3 65.323 57.333 31.938 108.644 60.522 182.397 38.033 12.815-3.898 26.402 3.225 30.341 15.909 3.937 12.685-3.259 26.133-16.074 30.031-93.752 28.587-153.586-4.744-220.441-41.986-57.979-32.298-121.957-67.936-221.339-59.3-27.823 2.417-55.695 7.978-83.596 17.463-28.034 9.527-56.168 23.031-84.391 41.291z" fill="#21DAFF"/></svg>